<?xml version="1.0" encoding="UTF-8"?>
<svg id="Layer_1" data-name="Layer 1" xmlns="http://www.w3.org/2000/svg" viewBox="0 0 1145.87 539.7">
  <path d="M546.86,259.47c8.04,6.75,8.21,19.06.36,26.02l-132.22,117.28-149.51,132.6c-3.14,2.79-7.2,4.33-11.4,4.33H17.22c-15.81,0-23.23-19.55-11.4-30.04l260.83-231.33,136.04-120.65c6.37-5.65,15.92-5.78,22.45-.31l121.73,102.11Z"/>
  <path d="M693.01,426.49l-121.14,107.43c-6.37,5.65-15.92,5.78-22.45.31l-103.51-86.83c-8.04-6.75-8.21-19.06-.36-26.02l121.13-107.43c6.37-5.65,15.92-5.78,22.45-.31l103.52,86.83c8.04,6.75,8.21,19.06.36,26.03Z"/>
  <path d="M1128.65,1.4c15.81,0,23.23,19.55,11.4,30.04l-263.96,234.11-129.15,114.55c-6.37,5.65-15.92,5.78-22.45.31l-125.86-105.57c-8.04-6.75-8.21-19.06-.36-26.03l125.34-111.16L872.35,5.73c3.14-2.79,7.2-4.33,11.4-4.33h244.89Z"/>
  <path d="M696.68,116.52l-126.01,110.04c-6.04,5.27-15.01,5.36-21.15.21l-104.91-88c-7.65-6.42-7.77-18.15-.25-24.71L570.38,4.01c6.04-5.27,15.01-5.36,21.15-.21l104.91,88c7.65,6.42,7.77,18.15.25,24.71Z"/>
</svg>