<?xml version="1.0" encoding="UTF-8"?>
<svg id="Layer_1" data-name="Layer 1" xmlns="http://www.w3.org/2000/svg" viewBox="0 0 5554.24 1232.31">
  <rect x="5373.04" y="845.06" width="181.2" height="140.93"/>
  <path d="M0,985.99V247.03h412.66v141.56h-231.46v597.4H0Z"/>
  <path d="M515.29,775.77c0-59.91,20.76-111.56,62.29-154.97,41.53-43.39,101.45-68.64,179.81-75.72l204.54-17.05v-48.13c0-38.69-10.38-66.65-31.14-83.88-20.76-17.22-49.08-25.84-84.94-25.84s-66.77,8.85-89.89,26.54c-23.12,17.7-34.68,43.53-34.68,77.51h-181.2c.94-40.58,9.67-76.09,26.19-106.53,16.52-30.44,38.46-55.8,65.83-76.09,27.37-20.29,59.93-35.74,97.68-46.36,37.75-10.62,78.8-15.93,123.16-15.93,88.71,0,158.79,21.47,210.22,64.41,51.43,42.94,77.15,105.94,77.15,188.99v362.4h124.58v140.86h-285.25l-1.42-114.67h-6.37c-21.23,40.58-49.43,72.79-84.58,96.62-35.15,23.83-81.28,35.74-138.38,35.74-33.98,0-65-5.66-93.08-16.99s-52.73-27.13-73.97-47.42c-21.23-20.29-37.63-44.12-49.19-71.49-11.56-27.37-17.34-58.04-17.34-92.02ZM703.57,796.43c0,22.14,10.15,38.73,30.44,49.8,20.29,11.07,46.48,16.59,78.57,16.59,46.24,0,82.7-16.34,109.36-49.06,26.66-32.7,39.99-72.35,39.99-118.93v-28.94l-217.26,18.93c-26.92,2.83-40.62,18.82-41.09,48.03v63.57Z"/>
  <path d="M1315.13,247.03h194.65l160.67,527.32h5.66l165.63-527.32h191.82l-357.45,985.28h-315.69v-140.15h185.45l36.1-106.17-266.85-738.96Z"/>
  <path d="M2129.12,775.77c0-59.91,20.76-111.56,62.29-154.97,41.53-43.39,101.45-68.64,179.81-75.72l204.54-17.05v-48.13c0-38.69-10.38-66.65-31.14-83.88-20.76-17.22-49.08-25.84-84.94-25.84s-66.77,8.85-89.89,26.54c-23.12,17.7-34.68,43.53-34.68,77.51h-181.2c.94-40.58,9.67-76.09,26.19-106.53,16.52-30.44,38.46-55.8,65.83-76.09,27.37-20.29,59.93-35.74,97.68-46.36,37.75-10.62,78.8-15.93,123.16-15.93,88.71,0,158.79,21.47,210.22,64.41,51.43,42.94,77.15,105.94,77.15,188.99v362.4h124.58v140.86h-285.25l-1.42-114.67h-6.37c-21.23,40.58-49.43,72.79-84.58,96.62-35.15,23.83-81.28,35.74-138.38,35.74-33.98,0-65-5.66-93.08-16.99-28.08-11.33-52.73-27.13-73.97-47.42-21.23-20.29-37.63-44.12-49.19-71.49-11.56-27.37-17.34-58.04-17.34-92.02ZM2317.4,796.43c0,22.14,10.15,38.73,30.44,49.8,20.29,11.07,46.48,16.59,78.57,16.59,46.24,0,82.7-16.34,109.36-49.06,26.66-32.7,39.99-72.35,39.99-118.93v-28.94l-217.26,18.93c-26.92,2.83-40.62,18.82-41.09,48.03v63.57Z"/>
  <path d="M2924.71,247.03h191.82l161.72,535.82h5.68l165.28-535.82h191.82l-259.91,738.96h-198.62l-257.78-738.96Z"/>
  <path d="M3785.41,985.99V247.03h412.66v141.56h-231.46v597.4h-181.2Z"/>
  <path d="M4680.1,387.18v-140.15h146.52V0h181.2v247.03h184.03v140.15h-184.03v457.96h184.03v140.86h-365.23V387.18h-146.52Z"/>
  <rect x="5373.04" y="247.1" width="181.2" height="416.76"/>
  <rect x="5191.85" y="663.84" width="181.2" height="181.2"/>
  <rect x="4317.7" y="569.2" width="181.2" height="416.76"/>
  <rect x="4317.7" y="247.06" width="181.2" height="140.93"/>
  <rect x="4498.89" y="388.01" width="181.2" height="181.2"/>
</svg>