<?xml version="1.0" encoding="UTF-8"?>
<svg id="Layer_1" data-name="Layer 1" xmlns="http://www.w3.org/2000/svg" viewBox="0 0 3246.64 1244.18">
  <defs>
    <style>
      .cls-1 {
        fill: #d3f904;
      }
    </style>
  </defs>
  <path class="cls-1" d="M1598.7,245.06c7.59,6.37,7.76,18,.34,24.58l-124.88,110.76-141.2,125.23c-2.97,2.63-6.8,4.09-10.77,4.09h-223.71c-14.93,0-21.94-18.47-10.77-28.38l246.34-218.48,128.48-113.95c6.02-5.34,15.04-5.46,21.2-.29l114.97,96.44Z"/>
  <path class="cls-1" d="M1736.73,402.79l-114.41,101.46c-6.02,5.34-15.04,5.46-21.2.29l-97.76-82.01c-7.59-6.37-7.75-18-.34-24.58l114.4-101.46c6.02-5.34,15.04-5.46,21.2-.29l97.77,82.01c7.6,6.37,7.76,18,.34,24.58Z"/>
  <path class="cls-1" d="M2148.16,1.32c14.93,0,21.94,18.47,10.77,28.38l-249.29,221.11-121.98,108.18c-6.02,5.34-15.04,5.46-21.2.29l-118.87-99.71c-7.59-6.37-7.76-18-.34-24.58l118.37-104.99L1906.1,5.41c2.97-2.63,6.8-4.09,10.77-4.09h231.29Z"/>
  <path class="cls-1" d="M1740.19,110.04l-119.01,103.93c-5.7,4.98-14.18,5.06-19.98.2l-99.08-83.11c-7.22-6.06-7.33-17.14-.23-23.34L1620.91,3.79c5.7-4.98,14.18-5.06,19.98-.2l99.08,83.11c7.22,6.06,7.33,17.14.23,23.34Z"/>
  <rect class="cls-1" x="3140.72" y="1017.82" width="105.92" height="82.38"/>
  <path class="cls-1" d="M0,1100.2v-431.95h241.21v82.75H105.92v349.2H0Z"/>
  <path class="cls-1" d="M301.21,977.32c0-35.02,12.14-65.21,36.41-90.59,24.27-25.36,59.3-40.12,105.1-44.26l119.56-9.96v-28.13c0-22.62-6.07-38.96-18.2-49.03-12.14-10.07-28.69-15.1-49.65-15.1s-39.03,5.17-52.55,15.52c-13.52,10.34-20.27,25.45-20.27,45.3h-105.92c.55-23.72,5.65-44.48,15.31-62.27,9.65-17.79,22.48-32.62,38.48-44.48,16-11.86,35.03-20.89,57.1-27.1,22.07-6.21,46.06-9.31,71.99-9.31,51.86,0,92.82,12.55,122.88,37.65,30.07,25.1,45.1,61.92,45.1,110.47v211.84h72.82v82.33h-166.74l-.83-67.03h-3.72c-12.41,23.72-28.89,42.55-49.44,56.48-20.55,13.93-47.51,20.89-80.89,20.89-19.86,0-38-3.31-54.41-9.93-16.41-6.62-30.82-15.86-43.24-27.72-12.41-11.86-22-25.79-28.76-41.79-6.76-16-10.14-33.93-10.14-53.79ZM411.26,989.4c0,12.94,5.93,22.64,17.79,29.11,11.86,6.47,27.17,9.7,45.93,9.7,27.03,0,48.34-9.55,63.92-28.67,15.58-19.11,23.38-42.29,23.38-69.52v-16.92l-127,11.07c-15.73,1.65-23.74,11-24.02,28.08v37.16Z"/>
  <path class="cls-1" d="M768.74,668.25h113.78l93.92,308.24h3.31l96.82-308.24h112.12l-208.94,575.93h-184.53v-81.92h108.4l21.1-62.06-155.98-431.95Z"/>
  <path class="cls-1" d="M1244.54,977.32c0-35.02,12.14-65.21,36.41-90.59,24.27-25.36,59.3-40.12,105.1-44.26l119.56-9.96v-28.13c0-22.62-6.07-38.96-18.2-49.03-12.14-10.07-28.69-15.1-49.65-15.1s-39.03,5.17-52.55,15.52c-13.52,10.34-20.27,25.45-20.27,45.3h-105.92c.55-23.72,5.65-44.48,15.31-62.27,9.65-17.79,22.48-32.62,38.48-44.48,16-11.86,35.03-20.89,57.1-27.1,22.07-6.21,46.06-9.31,71.99-9.31,51.86,0,92.82,12.55,122.88,37.65,30.07,25.1,45.1,61.92,45.1,110.47v211.84h72.82v82.33h-166.74l-.83-67.03h-3.72c-12.41,23.72-28.89,42.55-49.44,56.48-20.55,13.93-47.51,20.89-80.89,20.89-19.86,0-38-3.31-54.41-9.93-16.41-6.62-30.82-15.86-43.24-27.72-12.41-11.86-22-25.79-28.76-41.79-6.76-16-10.14-33.93-10.14-53.79ZM1354.6,989.4c0,12.94,5.93,22.64,17.79,29.11,11.86,6.47,27.17,9.7,45.93,9.7,27.03,0,48.34-9.55,63.92-28.67,15.58-19.11,23.38-42.29,23.38-69.52v-16.92l-127,11.07c-15.73,1.65-23.74,11-24.02,28.08v37.16Z"/>
  <path class="cls-1" d="M1709.59,668.25h112.12l94.53,313.2h3.32l96.61-313.2h112.12l-151.92,431.95h-116.1l-150.68-431.95Z"/>
  <path class="cls-1" d="M2212.7,1100.2v-431.95h241.21v82.75h-135.29v349.2h-105.92Z"/>
  <path class="cls-1" d="M2735.67,750.17v-81.92h85.64v-144.4h105.92v144.4h107.57v81.92h-107.57v267.69h107.57v82.33h-213.49v-350.03h-85.64Z"/>
  <rect class="cls-1" x="3140.72" y="668.29" width="105.92" height="243.61"/>
  <rect class="cls-1" x="3034.81" y="911.89" width="105.92" height="105.92"/>
  <rect class="cls-1" x="2523.84" y="856.57" width="105.92" height="243.61"/>
  <rect class="cls-1" x="2523.84" y="668.27" width="105.92" height="82.38"/>
  <rect class="cls-1" x="2629.75" y="750.66" width="105.92" height="105.92" transform="translate(5365.43 1607.24) rotate(-180)"/>
</svg>