<?xml version="1.0" encoding="UTF-8"?>
<svg id="Layer_1" data-name="Layer 1" xmlns="http://www.w3.org/2000/svg" viewBox="0 0 4572.26 1261.35">
  <defs>
    <style>
      .cls-1 {
        fill: none;
      }
    </style>
  </defs>
  <rect x="4152.57" y="731.98" width="82.65" height="64.28"/>
  <path d="M1701.93,796.26v-337.04h188.21v64.57h-105.57v272.47h-82.65Z"/>
  <path d="M1936.95,700.37c0-27.32,9.47-50.88,28.41-70.68,18.94-19.79,46.27-31.31,82.01-34.53l93.29-7.77v-21.95c0-17.65-4.73-30.4-14.2-38.26-9.47-7.86-22.38-11.78-38.74-11.78s-30.45,4.04-41,12.11c-10.55,8.07-15.82,19.85-15.82,35.35h-82.65c.43-18.51,4.41-34.7,11.94-48.59,7.53-13.88,17.54-25.45,30.02-34.7,12.48-9.25,27.33-16.3,44.55-21.15,17.22-4.84,35.94-7.26,56.17-7.26,40.46,0,72.42,9.79,95.88,29.38,23.46,19.59,35.19,48.32,35.19,86.2v165.29h56.82v64.24h-130.1l-.65-52.3h-2.91c-9.69,18.51-22.54,33.2-38.58,44.07-16.03,10.87-37.07,16.3-63.11,16.3-15.5,0-29.65-2.58-42.45-7.75-12.81-5.17-24.05-12.38-33.74-21.63-9.69-9.25-17.16-20.12-22.44-32.61-5.27-12.48-7.91-26.47-7.91-41.97ZM2022.83,709.8c0,10.1,4.63,17.67,13.88,22.72,9.25,5.05,21.2,7.57,35.83,7.57,21.09,0,37.72-7.45,49.88-22.37,12.16-14.91,18.24-33,18.24-54.25v-13.2l-99.09,8.64c-12.28,1.29-18.53,8.58-18.74,21.91v28.99Z"/>
  <path d="M2301.76,459.21h88.78l73.28,240.51h2.58l75.54-240.51h87.49l-163.03,449.39h-143.98v-63.92h84.58l16.46-48.43-121.71-337.04Z"/>
  <path d="M2673.02,700.37c0-27.32,9.47-50.88,28.41-70.68,18.94-19.79,46.27-31.31,82.01-34.53l93.29-7.77v-21.95c0-17.65-4.73-30.4-14.2-38.26-9.47-7.86-22.38-11.78-38.74-11.78s-30.45,4.04-41,12.11c-10.55,8.07-15.82,19.85-15.82,35.35h-82.65c.43-18.51,4.41-34.7,11.94-48.59s17.54-25.45,30.02-34.7c12.48-9.25,27.33-16.3,44.55-21.15,17.22-4.84,35.94-7.26,56.17-7.26,40.46,0,72.42,9.79,95.88,29.38,23.46,19.59,35.19,48.32,35.19,86.2v165.29h56.82v64.24h-130.1l-.65-52.3h-2.91c-9.69,18.51-22.54,33.2-38.58,44.07-16.03,10.87-37.07,16.3-63.11,16.3-15.5,0-29.65-2.58-42.45-7.75-12.81-5.17-24.05-12.38-33.74-21.63-9.69-9.25-17.16-20.12-22.44-32.61-5.27-12.48-7.91-26.47-7.91-41.97ZM2758.89,709.8c0,10.1,4.63,17.67,13.88,22.72,9.25,5.05,21.2,7.57,35.83,7.57,21.09,0,37.72-7.45,49.88-22.37,12.16-14.91,18.24-33,18.24-54.25v-13.2l-99.09,8.64c-12.28,1.29-18.53,8.58-18.74,21.91v28.99Z"/>
  <path d="M3035.89,459.21h87.49l73.76,244.39h2.59l75.38-244.39h87.49l-118.54,337.04h-90.59l-117.58-337.04Z"/>
  <path d="M3428.46,796.26v-337.04h188.21v64.57h-105.57v272.47h-82.65Z"/>
  <path d="M3836.52,523.14v-63.92h66.83v-112.67h82.65v112.67h83.94v63.92h-83.94v208.87h83.94v64.24h-166.58v-273.12h-66.83Z"/>
  <rect x="4152.57" y="459.25" width="82.65" height="190.09"/>
  <rect x="4069.93" y="649.32" width="82.65" height="82.65"/>
  <rect x="3671.23" y="606.16" width="82.65" height="190.09"/>
  <rect x="3671.23" y="459.23" width="82.65" height="64.28"/>
  <rect x="3753.88" y="523.52" width="82.65" height="82.65"/>
  <path d="M933.65,618.59c8.77,7.36,8.96,20.79.39,28.39l-144.25,127.95-163.11,144.66c-3.43,3.04-7.86,4.72-12.44,4.72h-258.42c-17.25,0-25.35-21.33-12.44-32.78l284.56-252.38,148.41-131.63c6.95-6.17,17.37-6.31,24.49-.34l132.81,111.4Z"/>
  <path d="M1093.1,800.8l-132.16,117.21c-6.95,6.17-17.37,6.31-24.49.34l-112.93-94.73c-8.77-7.36-8.96-20.79-.39-28.39l132.15-117.21c6.95-6.17,17.37-6.31,24.49-.34l112.93,94.73c8.77,7.36,8.96,20.8.39,28.39Z"/>
  <path d="M1568.36,337.04c17.25,0,25.35,21.33,12.44,32.78l-287.97,255.41-140.9,124.97c-6.95,6.17-17.37,6.31-24.49.34l-137.31-115.18c-8.77-7.36-8.96-20.79-.39-28.39l136.74-121.28,162.27-143.92c3.43-3.04,7.86-4.72,12.44-4.72h267.17Z"/>
  <path d="M1097.1,462.63l-137.47,120.05c-6.59,5.75-16.38,5.85-23.08.23l-114.45-96.01c-8.34-7-8.47-19.8-.27-26.96l137.47-120.05c6.59-5.75,16.38-5.85,23.08-.23l114.45,96.01c8.34,7,8.47,19.8.27,26.96Z"/>
  <rect class="cls-1" x="0" width="4572.26" height="1261.35"/>
</svg>